<svg width="124" height="31" viewBox="0 0 124 31" fill="none" xmlns="http://www.w3.org/2000/svg">
<path d="M117.784 2.12625C118.033 0.934581 119.016 0.380878 119.135 0.320692C119.976 -0.136715 120.794 0.00772946 121.067 0.0799517C122.169 0.344767 122.714 1.1994 122.833 1.39199C123.307 2.18643 123.259 2.99291 123.236 3.42625C123.07 5.59291 121.304 7.01328 120.237 7.86791C119.692 8.31328 119.253 8.56606 119.17 8.49384C119.087 8.40958 119.526 8.00032 119.893 7.06143C120.059 6.66421 120.19 6.19476 120.237 6.06236C120.32 5.79754 120.367 5.56884 120.415 5.40032C120.036 5.35217 119.265 5.20773 118.601 4.59384C118.424 4.43736 118.116 4.14847 117.914 3.65495C117.618 2.94476 117.748 2.3068 117.784 2.12625Z" fill="#54B0AF"/>
<path d="M9.35111 30.2207C7.40741 30.2207 5.7363 29.9077 4.33778 29.2818C2.92741 28.6559 1.86074 27.7772 1.11407 26.6457C0.367407 25.5142 0 24.2022 0 22.6855H4.30222C4.30222 24.1661 4.7763 25.2614 5.7363 25.9596C6.6963 26.6577 7.92889 27.0068 9.44593 27.0068C10.963 27.0068 12.16 26.7179 12.9659 26.1281C13.7719 25.5503 14.163 24.7198 14.163 23.6605C14.163 22.6013 13.9852 22.2401 13.6178 21.7948C13.2504 21.3494 12.6933 21.0003 11.9585 20.7475C11.2119 20.4948 10.2281 20.2781 8.9837 20.1096C7.09926 19.8207 5.54667 19.4475 4.30222 18.9781C3.05778 18.5087 2.13333 17.8346 1.51704 16.9679C0.900741 16.1013 0.592593 14.9577 0.592593 13.5614C0.592593 12.1651 0.96 10.9975 1.70667 9.98644C2.45333 8.97532 3.48444 8.18088 4.8 7.59107C6.11556 7.00125 7.6563 6.71236 9.39852 6.71236C11.1407 6.71236 12.7407 7.01329 14.0326 7.61514C15.3244 8.21699 16.32 9.04755 17.0193 10.0948C17.7185 11.154 18.0859 12.3938 18.1096 13.8142H13.8548C13.8311 12.8994 13.6296 12.1651 13.2504 11.6114C12.8711 11.0577 12.3496 10.6364 11.6859 10.3716C11.0222 10.1068 10.2281 9.96236 9.3037 9.96236C7.92889 9.96236 6.85037 10.2513 6.08 10.817C5.30963 11.3827 4.91852 12.1651 4.91852 13.1281C4.91852 14.0911 5.12 14.4642 5.51111 14.9096C5.90222 15.355 6.51852 15.692 7.34815 15.9327C8.17778 16.1735 9.23259 16.3901 10.5244 16.5948C11.8163 16.7633 12.9659 17.004 13.9615 17.305C14.957 17.6059 15.7985 18.0151 16.4978 18.5327C17.1852 19.0503 17.6948 19.6883 18.0385 20.4587C18.3704 21.229 18.5481 22.1679 18.5481 23.2874C18.5481 25.5142 17.7067 27.2235 16.0119 28.4272C14.3289 29.6309 12.1007 30.2207 9.35111 30.2207Z" fill="#54B0AF"/>
<path d="M29.4993 29.7994C28.2548 29.7994 27.2948 29.6188 26.5956 29.2698C25.8963 28.9087 25.3985 28.379 25.1259 27.6688C24.8415 26.9587 24.6993 26.104 24.6993 25.105V10.7688H20.48V7.16977H24.6993V0.621622L29.037 0.104027V7.16977H33.9674V10.7688H29.037V24.2985C29.037 25.0688 29.1793 25.5744 29.4519 25.8151C29.7245 26.0559 30.2222 26.1763 30.9215 26.1763H33.9556V29.8114H29.4874L29.4993 29.7994Z" fill="#54B0AF"/>
<path d="M47.04 30.1846C45.4163 30.1846 43.923 29.9077 42.5956 29.3661C41.2563 28.8244 40.1067 28.042 39.1585 27.0068C38.2104 25.9837 37.4637 24.7559 36.9185 23.3235C36.3852 21.8911 36.1126 20.3022 36.1126 18.5327C36.1126 16.7633 36.5511 14.1392 37.44 12.3938C38.3289 10.6364 39.5852 9.26421 41.2326 8.28921C42.88 7.30217 44.8119 6.80865 47.0282 6.80865C49.2444 6.80865 50.1333 7.07347 51.4726 7.6031C52.8119 8.13273 53.9496 8.91514 54.9096 9.93828C55.8696 10.9614 56.6044 12.2012 57.1259 13.6457C57.6474 15.0901 57.9082 16.7031 57.9082 18.5087C57.9082 20.3142 57.4696 22.854 56.6044 24.6114C55.7393 26.3688 54.483 27.7411 52.8593 28.7281C51.2237 29.7151 49.2919 30.2087 47.04 30.2087V30.1846ZM47.04 26.5012C48.3319 26.5012 49.4696 26.2003 50.4296 25.5744C51.4015 24.9605 52.1482 24.0577 52.6815 22.854C53.2148 21.6503 53.4874 20.1938 53.4874 18.4846C53.4874 16.7753 53.3452 16.0651 53.0489 15.0781C52.7526 14.0911 52.3259 13.2485 51.757 12.5503C51.1881 11.8522 50.5244 11.3225 49.7304 10.9614C48.9482 10.6003 48.0474 10.4318 47.0282 10.4318C46.0089 10.4318 44.5985 10.7448 43.6385 11.3707C42.6667 11.9966 41.9082 12.9114 41.363 14.0911C40.8178 15.2707 40.5452 16.7512 40.5452 18.5207C40.5452 20.2901 40.6874 20.892 40.9837 21.879C41.28 22.8661 41.7185 23.6966 42.2874 24.3827C42.8563 25.0688 43.5556 25.5864 44.3496 25.9475C45.1556 26.3087 46.0444 26.4772 47.0282 26.4772L47.04 26.5012Z" fill="#54B0AF"/>
<path d="M72.2015 30.1846C70.5778 30.1846 69.0963 29.9077 67.757 29.354C66.4296 28.8003 65.2919 28.0059 64.3437 26.9827C63.3956 25.9596 62.6726 24.7318 62.1511 23.2994C61.6296 21.867 61.3689 20.2781 61.3689 18.5087C61.3689 16.7392 61.8193 14.1151 62.72 12.3698C63.6207 10.6124 64.9007 9.25217 66.56 8.27717C68.2193 7.30217 70.1511 6.82069 72.3793 6.82069C74.6074 6.82069 75.7926 7.15773 77.2148 7.84384C78.637 8.52995 79.7748 9.48087 80.6282 10.7087C81.4815 11.9364 81.9674 13.3688 82.0859 14.9938H77.8667C77.7007 13.9948 77.3452 13.1642 76.8119 12.5142C76.2785 11.8522 75.6267 11.3587 74.8563 11.0096C74.0859 10.6725 73.2207 10.492 72.2607 10.492C70.8859 10.492 69.7126 10.829 68.7644 11.5031C67.8044 12.1772 67.0815 13.104 66.5719 14.3077C66.0741 15.5114 65.8133 16.9198 65.8133 18.5448C65.8133 20.1698 66.0741 21.6624 66.6193 22.854C67.1526 24.0337 67.8993 24.9485 68.8474 25.5744C69.7956 26.2003 70.9215 26.5133 72.2133 26.5133C73.5052 26.5133 74.2637 26.3087 75.0815 25.9114C75.8993 25.5142 76.5511 24.9485 77.037 24.2262C77.5348 23.504 77.8311 22.6614 77.9496 21.7225H82.1689C82.0504 23.4318 81.5645 24.9244 80.6874 26.2003C79.8104 27.4762 78.6489 28.4512 77.1911 29.1494C75.7333 29.8475 74.0741 30.1966 72.2133 30.1966L72.2015 30.1846Z" fill="#54B0AF"/>
<path d="M94.1748 30.1846C92.8237 30.1846 91.5911 29.9318 90.4889 29.4142C89.3748 28.8966 88.4148 28.1503 87.597 27.1633C86.7793 26.1762 86.1511 24.9605 85.7245 23.504C85.2859 22.0475 85.0726 20.3624 85.0726 18.4485C85.0726 16.5346 85.4519 13.8142 86.2341 12.0688C87.0045 10.3235 88.0711 9.01143 89.4341 8.10866C90.797 7.20588 92.3733 6.76051 94.1748 6.76051C95.9763 6.76051 96.5452 6.96514 97.5644 7.36236C98.5956 7.75958 99.4607 8.32532 100.184 9.04755C100.895 9.76977 101.428 10.6244 101.76 11.5994H102.009L102.187 7.14569H106.359V29.7874H102.009V25.2975H101.76C101.227 26.754 100.302 27.9337 98.9748 28.8244C97.6474 29.7272 96.0474 30.1725 94.1748 30.1725V30.1846ZM95.68 26.5374C97.0548 26.5374 98.2044 26.2124 99.1407 25.5503C100.077 24.8883 100.764 24.0457 101.25 23.0225C101.724 21.9994 101.961 20.892 101.961 19.7244V17.1605C101.961 15.9929 101.724 14.8975 101.25 13.8624C100.776 12.8392 100.065 11.9966 99.1407 11.3346C98.2163 10.6725 97.0548 10.3475 95.68 10.3475C94.3052 10.3475 93.357 10.6485 92.4326 11.2624C91.5082 11.8762 90.7852 12.779 90.2874 13.9587C89.7896 15.1383 89.5289 16.6309 89.5289 18.4364C89.5289 20.242 89.7778 21.6864 90.2874 22.8901C90.7852 24.0938 91.5082 24.9966 92.4326 25.6105C93.357 26.2244 94.4356 26.5374 95.68 26.5374Z" fill="#54B0AF"/>
<path d="M112.427 29.7994V7.15773H116.764V29.7994H112.427Z" fill="#54B0AF"/>
</svg>
