<?xml version="1.0" encoding="UTF-8"?>
<svg id="Layer_1" xmlns="http://www.w3.org/2000/svg" version="1.1" viewBox="0 0 1080 1080">
  <!-- Generator: Adobe Illustrator 29.6.1, SVG Export Plug-In . SVG Version: 2.1.1 Build 9)  -->
  <defs>
    <style>
      .st0 {
        fill: #54b0af;
      }
    </style>
  </defs>
  <path class="st0" d="M1013.9,432.1c2.1-9.9,10.4-14.5,11.4-15,7.1-3.8,14-2.6,16.3-2,9.3,2.2,13.9,9.3,14.9,10.9,4,6.6,3.6,13.3,3.4,16.9-1.4,18-16.3,29.8-25.3,36.9-4.6,3.7-8.3,5.8-9,5.2-.7-.7,3-4.1,6.1-11.9,1.4-3.3,2.5-7.2,2.9-8.3.7-2.2,1.1-4.1,1.5-5.5-3.2-.4-9.7-1.6-15.3-6.7-1.5-1.3-4.1-3.7-5.8-7.8-2.5-5.9-1.4-11.2-1.1-12.7h0Z"/>
  <path class="st0" d="M99,665.5c-16.4,0-30.5-2.6-42.3-7.8-11.9-5.2-20.9-12.5-27.2-21.9-6.3-9.4-9.4-20.3-9.4-32.9h36.3c0,12.3,4,21.4,12.1,27.2,8.1,5.8,18.5,8.7,31.3,8.7s22.9-2.4,29.7-7.3c6.8-4.8,10.1-11.7,10.1-20.5s-1.5-11.8-4.6-15.5c-3.1-3.7-7.8-6.6-14-8.7-6.3-2.1-14.6-3.9-25.1-5.3-15.9-2.4-29-5.5-39.5-9.4-10.5-3.9-18.3-9.5-23.5-16.7-5.2-7.2-7.8-16.7-7.8-28.3s3.1-21.3,9.4-29.7c6.3-8.4,15-15,26.1-19.9,11.1-4.9,24.1-7.3,38.8-7.3s28.2,2.5,39.1,7.5c10.9,5,19.3,11.9,25.2,20.6,5.9,8.8,9,19.1,9.2,30.9h-35.9c-.2-7.6-1.9-13.7-5.1-18.3-3.2-4.6-7.6-8.1-13.2-10.3-5.6-2.2-12.3-3.4-20.1-3.4-11.6,0-20.7,2.4-27.2,7.1s-9.8,11.2-9.8,19.2,1.7,11.1,5,14.8c3.3,3.7,8.5,6.5,15.5,8.5,7,2,15.9,3.8,26.8,5.5,10.9,1.4,20.6,3.4,29,5.9,8.4,2.5,15.5,5.9,21.4,10.2,5.8,4.3,10.1,9.6,13,16,2.8,6.4,4.3,14.2,4.3,23.5,0,18.5-7.1,32.7-21.4,42.7-14.2,10-33,14.9-56.2,14.9h0s0,0,0,0Z"/>
  <path class="st0" d="M269,662c-10.5,0-18.6-1.5-24.5-4.4-5.9-3-10.1-7.4-12.4-13.3-2.4-5.9-3.6-13-3.6-21.3v-119.1h-35.6v-29.9h35.6v-54.4l36.6-4.3v58.7h41.6v29.9h-41.6v112.4c0,6.4,1.2,10.6,3.5,12.6,2.3,2,6.5,3,12.4,3h25.6v30.2h-37.7,0Z"/>
  <path class="st0" d="M417,665.2c-13.7,0-26.3-2.3-37.5-6.8-11.3-4.5-21-11-29-19.6-8-8.5-14.3-18.7-18.9-30.6-4.5-11.9-6.8-25.1-6.8-39.8s3.7-36.5,11.2-51c7.5-14.6,18.1-26,32-34.1,13.9-8.2,30.2-12.3,48.9-12.3s26.2,2.2,37.5,6.6c11.3,4.4,20.9,10.9,29,19.4,8.1,8.5,14.3,18.8,18.7,30.8,4.4,12,6.6,25.4,6.6,40.4s-3.7,36.1-11,50.7c-7.3,14.6-17.9,26-31.6,34.2-13.8,8.2-30.1,12.3-49.1,12.3h0ZM417,634.6c10.9,0,20.5-2.5,28.6-7.7,8.2-5.1,14.5-12.6,19-22.6,4.5-10,6.8-22.1,6.8-36.3s-1.2-20.1-3.7-28.3c-2.5-8.2-6.1-15.2-10.9-21s-10.4-10.2-17.1-13.2c-6.6-3-14.2-4.4-22.8-4.4s-20.5,2.6-28.6,7.8c-8.2,5.2-14.6,12.8-19.2,22.6-4.6,9.8-6.9,22.1-6.9,36.8s1.2,19.7,3.7,27.9c2.5,8.2,6.2,15.1,11,20.8s10.7,10,17.4,13c6.8,3,14.3,4.4,22.6,4.4h0s0,0,0,0Z"/>
  <path class="st0" d="M629.3,665.2c-13.7,0-26.2-2.3-37.5-6.9-11.2-4.6-20.8-11.2-28.8-19.7s-14.1-18.7-18.5-30.6c-4.4-11.9-6.6-25.1-6.6-39.8s3.8-36.5,11.4-51c7.6-14.6,18.4-25.9,32.4-34,14-8.1,30.3-12.1,49.1-12.1s28.8,2.8,40.8,8.5c12,5.7,21.6,13.6,28.8,23.8,7.2,10.2,11.3,22.1,12.3,35.6h-35.6c-1.4-8.3-4.4-15.2-8.9-20.6-4.5-5.5-10-9.6-16.5-12.5-6.5-2.8-13.8-4.3-21.9-4.3-11.6,0-21.5,2.8-29.5,8.4-8.1,5.6-14.2,13.3-18.5,23.3-4.2,10-6.4,21.7-6.4,35.2s2.2,25.9,6.8,35.8c4.5,9.8,10.8,17.4,18.8,22.6,8,5.2,17.5,7.8,28.4,7.8s17.3-1.7,24.2-5c6.9-3.3,12.4-8,16.5-14,4.2-6,6.7-13,7.7-20.8h35.6c-1,14.2-5.1,26.6-12.5,37.2-7.4,10.6-17.2,18.7-29.5,24.5-12.3,5.8-26.3,8.7-42,8.7h0s0,0,0,0Z"/>
  <path class="st0" d="M814.7,665.2c-11.4,0-21.8-2.1-31.1-6.4-9.4-4.3-17.5-10.5-24.4-18.7-6.9-8.2-12.2-18.3-15.8-30.4-3.7-12.1-5.5-26.1-5.5-42s3.2-38.5,9.8-53c6.5-14.5,15.5-25.4,27-32.9,11.5-7.5,24.8-11.2,40-11.2s20,1.7,28.6,5c8.7,3.3,16,8,22.1,14,6,6,10.5,13.1,13.3,21.2h2.1l1.5-37h35.2v188.1h-36.7v-37.3h-2.1c-4.5,12.1-12.3,21.9-23.5,29.3-11.2,7.5-24.7,11.2-40.5,11.2h0s0,0,0,0ZM827.4,634.9c11.6,0,21.3-2.7,29.2-8.2s13.7-12.5,17.8-21c4-8.5,6-17.7,6-27.4v-21.3c0-9.7-2-18.8-6-27.4-4-8.5-10-15.5-17.8-21-7.8-5.5-17.6-8.2-29.2-8.2s-19.6,2.5-27.4,7.6-13.9,12.6-18.1,22.4c-4.2,9.8-6.4,22.2-6.4,37.2s2.1,27,6.4,37c4.2,10,10.3,17.5,18.1,22.6,7.8,5.1,16.9,7.7,27.4,7.7Z"/>
  <path class="st0" d="M968.7,662v-188.1h36.6v188.1h-36.6Z"/>
</svg>